# xmcd
#
# Track frame offsets:
#	150
#	79344
#	131570
#	169605
#	225849
#	246138
#
# Disc length: 4250 seconds
#
# Revision: 0
# Processed by: cddbd v1.5.2PL0 Copyright (c) Steve Scherf et al.
# Submitted via: EasyCDDAExtractor 16.0.1.1
#
DISCID=3e109806
DTITLE=Eric Clapton - The Twelfth Night Cd2
DYEAR=1989
DGENRE=Blues
TTITLE0=Same Old Blues
TTITLE1=Tearing Us Apart
TTITLE2=Cocaine
TTITLE3=Layla
TTITLE4=Behind The Mask
TTITLE5=Sunshine Of Your Love
EXTD=
EXTT0=
EXTT1=
EXTT2=
EXTT3=
EXTT4=
EXTT5=
PLAYORDER=
